<svg width="15" height="16" viewBox="0 0 15 16" fill="none" xmlns="http://www.w3.org/2000/svg">
<path d="M11.4551 7.293C11.3741 7.114 11.1961 7 11.0001 7H9.00006V0.5C9.00006 0.224 8.77606 0 8.50006 0H6.50006C6.22406 0 6.00006 0.224 6.00006 0.5V7H4.00006C3.80406 7 3.62606 7.115 3.54506 7.293C3.46306 7.472 3.49506 7.681 3.62406 7.829L7.12406 11.829C7.21906 11.938 7.35606 12 7.50006 12C7.64406 12 7.78106 11.937 7.87606 11.829L11.3761 7.829C11.5061 7.682 11.5361 7.472 11.4551 7.293Z" fill="#001A72"/>
<path d="M13 11V14H2V11H0V15C0 15.553 0.448 16 1 16H14C14.553 16 15 15.553 15 15V11H13Z" fill="#001A72"/>
</svg>
