<svg width="55" height="60" viewBox="0 0 55 60" fill="none" xmlns="http://www.w3.org/2000/svg">
<path fill-rule="evenodd" clip-rule="evenodd" d="M27.5 55C41.5833 55 53 43.8071 53 30C53 16.1929 41.5833 5 27.5 5C13.4167 5 2 16.1929 2 30C2 43.8071 13.4167 55 27.5 55Z" fill="white"/>
<path d="M53.0443 39.4966C54.0045 36.76 54.5003 33.8726 54.5003 30.9212C54.5003 16.3209 42.3898 4.5 27.4685 4.5C23.2005 4.5 19.0709 5.46867 15.3386 7.30325C14.5952 7.6687 14.2887 8.56765 14.6542 9.31112C15.0196 10.0546 15.9186 10.361 16.662 9.99558C19.9843 8.36252 23.6614 7.5 27.4685 7.5C40.7489 7.5 51.5003 17.9943 51.5003 30.9212C51.5003 33.533 51.0622 36.0847 50.2135 38.5034C49.9392 39.2851 50.3506 40.1411 51.1323 40.4154C51.914 40.6897 52.77 40.2783 53.0443 39.4966Z" fill="#001A72"/>
<path d="M0.5 30C0.5 31.0681 0.564357 32.1288 0.69201 33.1781C2.30401 46.4295 13.7776 56.5 27.456 56.5C32.1717 56.5 36.7147 55.3068 40.7301 53.0693C41.4538 52.666 41.7136 51.7525 41.3103 51.0288C40.9071 50.3052 39.9935 50.0454 39.2699 50.4487C35.6985 52.4387 31.6578 53.5 27.456 53.5C15.2885 53.5 5.0982 44.5558 3.67006 32.8159C3.55702 31.8866 3.5 30.9469 3.5 30C3.5 29.1716 2.82843 28.5 2 28.5C1.17157 28.5 0.5 29.1716 0.5 30Z" fill="#001A72"/>
<path d="M19.7602 2.49925C20.0359 1.71807 19.6262 0.86124 18.845 0.585469C18.0639 0.309699 17.207 0.719414 16.9313 1.50059L14.9068 7.23516C14.4584 8.50539 15.0971 9.90251 16.351 10.3946L21.4518 12.3963C22.223 12.6989 23.0934 12.319 23.3961 11.5479C23.6987 10.7767 23.3189 9.90621 22.5477 9.60359L17.8965 7.77836L19.7602 2.49925Z" fill="#001A72"/>
<path d="M40.8055 56.3659C40.7215 57.1901 41.3215 57.9263 42.1456 58.0103C42.9698 58.0944 43.706 57.4944 43.79 56.6702L44.3995 50.6927C44.5395 49.3191 43.5395 48.092 42.1659 47.952L36.3805 47.4441C35.5553 47.3717 34.8276 47.982 34.7552 48.8073C34.6828 49.6325 35.2931 50.3602 36.1183 50.4326L41.3635 50.8929L40.8055 56.3659Z" fill="#001A72"/>
</svg>
