<svg width="25" height="24" viewBox="0 0 25 24" fill="none" xmlns="http://www.w3.org/2000/svg">
<g opacity="0.5">
<path fill-rule="evenodd" clip-rule="evenodd" d="M1.24055 16.6019C1.02514 16.6167 0.839878 16.4337 0.826911 16.1935C0.825867 16.176 0.825867 16.1583 0.826911 16.1409V9.2234H22.3284V10.6991C22.62 10.8877 22.8968 11.1037 23.1554 11.3449V1.38357C23.1681 0.633909 22.6338 0.0147049 21.9616 0.000247676C21.946 -5.58258e-05 21.9304 -5.58258e-05 21.915 0.000247676H1.24055C0.568378 -0.0139255 0.012912 0.581963 0.00023112 1.33162C-5.29261e-05 1.34903 -5.29261e-05 1.36645 0.00023112 1.38357V16.1406C-0.0127358 16.8903 0.521548 17.5098 1.19372 17.5242C1.20932 17.5245 1.22521 17.5245 1.24081 17.5242H12.4462C12.3911 17.22 12.3911 16.9062 12.4462 16.6019H1.24055ZM0.826895 8.30114V4.61188H22.3284V8.30114H0.826895ZM1.24056 0.922729H21.915C22.1304 0.908266 22.3154 1.09125 22.3284 1.3315C22.3292 1.34891 22.3292 1.36662 22.3284 1.38403V3.68997H0.826927V1.38403C0.813723 1.14379 0.977781 0.937482 1.19295 0.922729C1.20879 0.921549 1.22468 0.921549 1.24056 0.922729H1.24056Z" fill="#001A72"/>
<path fill-rule="evenodd" clip-rule="evenodd" d="M18.5436 10.4043C14.978 10.4043 12.0874 13.2949 12.0874 16.8605C12.0874 20.4261 14.978 23.3167 18.5436 23.3167C22.1092 23.3167 24.9998 20.4261 24.9998 16.8605C24.9892 13.2993 22.1048 10.4149 18.5436 10.4043ZM18.5437 22.4337C15.4654 22.4337 12.9697 19.938 12.9697 16.8597C12.9697 13.7814 15.4654 11.2859 18.5437 11.2859C21.6221 11.2859 24.1175 13.7814 24.1175 16.8597C24.1175 19.938 21.6221 22.4337 18.5437 22.4337Z" fill="#001A72"/>
<path fill-rule="evenodd" clip-rule="evenodd" d="M15.6294 22.4083V16.1365C15.6294 15.5751 16.0846 15.12 16.646 15.12V14.1034C16.646 13.8228 16.8737 13.5951 17.1543 13.5951H17.6626V12.7424C17.6626 12.6021 17.7762 12.4883 17.9167 12.4883C18.0573 12.4883 18.1709 12.6021 18.1709 12.7424V13.5951H18.6792C18.9598 13.5951 19.1875 13.8228 19.1875 14.1034V15.12C19.7489 15.12 20.2041 15.5751 20.2041 16.1365V18.1697H22.4914V21.595L21.0872 22.5767L15.6294 22.4083ZM18.6791 14.3573C18.6791 14.217 18.5655 14.1031 18.425 14.1031H17.4084C17.2678 14.1031 17.1542 14.217 17.1542 14.3573V15.1197H18.6791V14.3573ZM19.6957 16.1363C19.6957 15.8557 19.468 15.628 19.1874 15.628H16.6459C16.3654 15.628 16.1376 15.8557 16.1376 16.1363V22.4901H19.6957L19.6957 16.1363ZM21.983 18.6778H20.204V22.49L22.0711 21.7276L21.983 18.6778ZM22.4914 17.1529V21.6046V17.1529ZM20.9665 19.4404H21.2206C21.3612 19.4404 21.4748 19.554 21.4748 19.6946V19.9487C21.4748 20.0893 21.3612 20.2029 21.2206 20.2029H20.9665C20.8259 20.2029 20.7123 20.0893 20.7123 19.9487V19.6946C20.7123 19.554 20.8259 19.4404 20.9665 19.4404ZM20.9665 20.9653H21.2206C21.3612 20.9653 21.4748 21.0789 21.4748 21.2194V21.4736C21.4748 21.6141 21.3612 21.7277 21.2206 21.7277H20.9665C20.8259 21.7277 20.7123 21.6141 20.7123 21.4736V21.2194C20.7123 21.0789 20.8259 20.9653 20.9665 20.9653ZM18.6792 21.7277H18.425C18.2845 21.7277 18.1709 21.6141 18.1709 21.4736V21.2194C18.1709 21.0792 18.2845 20.9653 18.425 20.9653H18.6792C18.8197 20.9653 18.9333 21.0792 18.9333 21.2194V21.4736C18.9333 21.6141 18.8197 21.7277 18.6792 21.7277ZM18.6792 20.2029H18.425C18.2845 20.2029 18.1709 20.0893 18.1709 19.9487V19.6946C18.1709 19.5543 18.2845 19.4404 18.425 19.4404H18.6792C18.8197 19.4404 18.9333 19.5543 18.9333 19.6946V19.9487C18.9333 20.0893 18.8197 20.2029 18.6792 20.2029ZM18.6792 18.678H18.425C18.2845 18.678 18.1709 18.5644 18.1709 18.4238V18.1697C18.1709 18.0294 18.2845 17.9155 18.425 17.9155H18.6792C18.8197 17.9155 18.9333 18.0294 18.9333 18.1697V18.4238C18.9333 18.5644 18.8197 18.678 18.6792 18.678ZM18.6792 17.1531H18.425C18.2845 17.1531 18.1709 17.0395 18.1709 16.899V16.6448C18.1709 16.5045 18.2845 16.3907 18.425 16.3907H18.6792C18.8197 16.3907 18.9333 16.5045 18.9333 16.6448V16.899C18.9333 17.0395 18.8197 17.1531 18.6792 17.1531ZM17.4084 21.7277H17.1543C17.0137 21.7277 16.9001 21.6141 16.9001 21.4736V21.2194C16.9001 21.0789 17.0137 20.9653 17.1543 20.9653H17.4084C17.549 20.9653 17.6626 21.0789 17.6626 21.2194V21.4736C17.6626 21.6141 17.549 21.7277 17.4084 21.7277ZM17.4084 20.2029H17.1543C17.0137 20.2029 16.9001 20.0893 16.9001 19.9487V19.6946C16.9001 19.554 17.0137 19.4404 17.1543 19.4404H17.4084C17.549 19.4404 17.6626 19.554 17.6626 19.6946V19.9487C17.6626 20.0893 17.549 20.2029 17.4084 20.2029ZM17.4084 18.678H17.1543C17.0137 18.678 16.9001 18.5644 16.9001 18.4238V18.1697C16.9001 18.0294 17.0137 17.9155 17.1543 17.9155H17.4084C17.549 17.9155 17.6626 18.0294 17.6626 18.1697V18.4238C17.6626 18.5644 17.549 18.678 17.4084 18.678ZM17.4084 17.1531H17.1543C17.0137 17.1531 16.9001 17.0395 16.9001 16.899V16.6448C16.9001 16.5045 17.0137 16.3907 17.1543 16.3907H17.4084C17.549 16.3907 17.6626 16.5045 17.6626 16.6448V16.899C17.6626 17.0395 17.549 17.1531 17.4084 17.1531Z" fill="#001A72"/>
<path d="M2.43481 14.1581H6.40153V12.6465H2.43481V14.1581Z" fill="#001A72"/>
</g>
</svg>
