<svg width="55" height="55" viewBox="0 0 55 55" fill="none" xmlns="http://www.w3.org/2000/svg">
<path d="M37.299 32.357L29.6305 26.6056V14.8899C29.6305 13.712 28.6783 12.7598 27.5003 12.7598C26.3223 12.7598 25.3701 13.712 25.3701 14.8899V27.6708C25.3701 28.3417 25.6854 28.9745 26.2222 29.3749L34.7427 35.7653C35.1261 36.0529 35.5735 36.1914 36.0186 36.1914C36.6683 36.1914 37.3074 35.8995 37.7249 35.3372C38.4323 34.3976 38.2405 33.0621 37.299 32.357Z" fill="#001A72"/>
<path d="M27.5 0C12.3356 0 0 12.3356 0 27.5C0 42.6644 12.3356 55 27.5 55C42.6644 55 55 42.6644 55 27.5C55 12.3356 42.6644 0 27.5 0ZM27.5 50.7398C14.6873 50.7398 4.26024 40.3127 4.26024 27.5C4.26024 14.6873 14.6873 4.26024 27.5 4.26024C40.3149 4.26024 50.7398 14.6873 50.7398 27.5C50.7398 40.3127 40.3127 50.7398 27.5 50.7398Z" fill="#001A72"/>
</svg>
