<svg width="15" height="15" viewBox="0 0 15 15" fill="none" xmlns="http://www.w3.org/2000/svg">
<g clip-path="url(#clip0)">
<path d="M12.8018 2.20638C15.7278 5.13475 15.7259 9.88066 12.7976 12.8067C9.86918 15.7328 5.12327 15.7309 2.19722 12.8025C-0.727198 9.87581 -0.727198 5.13312 2.19722 2.20638C5.1066 -0.721996 9.83902 -0.737362 12.7674 2.17202C12.7789 2.18343 12.7903 2.19488 12.8018 2.20638Z" fill="#D7443E"/>
<path d="M11.2264 5.08116L8.79887 7.50873L11.2264 9.93626L9.92747 11.2352L7.49994 8.80766L5.07241 11.2352L3.77344 9.93626L6.20101 7.50873L3.77344 5.08116L5.07241 3.78223L7.49994 6.20976L9.92747 3.78223L11.2264 5.08116Z" fill="white"/>
</g>
<defs>
<clipPath id="clip0">
<rect width="15" height="15" fill="white"/>
</clipPath>
</defs>
</svg>
