<svg width="15" height="19" viewBox="0 0 15 19" fill="none" xmlns="http://www.w3.org/2000/svg">
<path fill-rule="evenodd" clip-rule="evenodd" d="M9.66116 3.03674H12.1635C13.1762 3.03674 14 3.90811 14 4.97901V5.07866C14 5.89697 13.5181 6.5974 12.8394 6.88283V16.0578C12.8394 17.1286 12.0155 18 11.0029 18H3.99715C2.98453 18 2.16065 17.1287 2.16065 16.0578V6.8828C1.48185 6.5974 1 5.89697 1 5.07863V4.97897C1 3.90811 1.82378 3.03674 2.83647 3.03674H5.33898C5.4638 1.89206 6.38462 1 7.49998 1C8.61538 1 9.53633 1.89209 9.66116 3.03674ZM8.78103 3.03674C8.66386 2.40192 8.13436 1.9211 7.49998 1.9211C6.86584 1.9211 6.33631 2.40189 6.21917 3.03674H8.78103ZM11.9683 16.0578C11.9683 16.6208 11.5351 17.0789 11.0028 17.0789H3.99712C3.46485 17.0789 3.03165 16.6208 3.03165 16.0578V7.02086H11.9683V16.0578ZM12.1635 6.0998C12.6958 6.0998 13.129 5.64167 13.129 5.07863H13.129V4.97897C13.129 4.41593 12.6958 3.9578 12.1635 3.9578H2.83647C2.3042 3.9578 1.871 4.41593 1.871 4.97897V5.07863C1.871 5.64167 2.3042 6.0998 2.83647 6.0998H12.1635Z" fill="#001A72"/>
<path d="M9.66116 3.03674L9.51204 3.053L9.52663 3.18674H9.66116V3.03674ZM12.8394 6.88283L12.7812 6.74456L12.6894 6.78319V6.88283H12.8394ZM2.16065 6.8828H2.31065V6.78314L2.21878 6.74452L2.16065 6.8828ZM5.33898 3.03674V3.18674H5.47351L5.48809 3.053L5.33898 3.03674ZM8.78103 3.03674V3.18674H8.96124L8.92853 3.00952L8.78103 3.03674ZM6.21917 3.03674L6.07166 3.00953L6.03897 3.18674H6.21917V3.03674ZM3.03165 7.02086V6.87086H2.88165V7.02086H3.03165ZM11.9683 7.02086H12.1183V6.87086H11.9683V7.02086ZM13.129 5.07863V4.92863H12.979V5.07863H13.129ZM13.129 5.07863V5.22863H13.279V5.07863H13.129ZM12.1635 2.88674H9.66116V3.18674H12.1635V2.88674ZM14.15 4.97901C14.15 3.8333 13.2668 2.88674 12.1635 2.88674V3.18674C13.0855 3.18674 13.85 3.98293 13.85 4.97901H14.15ZM14.15 5.07866V4.97901H13.85V5.07866H14.15ZM12.8975 7.0211C13.6332 6.71172 14.15 5.95592 14.15 5.07866H13.85C13.85 5.83802 13.403 6.48308 12.7812 6.74456L12.8975 7.0211ZM12.9894 16.0578V6.88283H12.6894V16.0578H12.9894ZM11.0029 18.15C12.1062 18.15 12.9894 17.2034 12.9894 16.0578H12.6894C12.6894 17.0538 11.9249 17.85 11.0029 17.85V18.15ZM3.99715 18.15H11.0029V17.85H3.99715V18.15ZM2.01065 16.0578C2.01065 17.2035 2.89388 18.15 3.99715 18.15V17.85C3.07517 17.85 2.31065 17.0538 2.31065 16.0578H2.01065ZM2.01065 6.8828V16.0578H2.31065V6.8828H2.01065ZM0.85 5.07863C0.85 5.95591 1.36674 6.71172 2.10251 7.02107L2.21878 6.74452C1.59696 6.48308 1.15 5.83802 1.15 5.07863H0.85ZM0.85 4.97897V5.07863H1.15V4.97897H0.85ZM2.83647 2.88674C1.73313 2.88674 0.85 3.8333 0.85 4.97897H1.15C1.15 3.98293 1.91443 3.18674 2.83647 3.18674V2.88674ZM5.33898 2.88674H2.83647V3.18674H5.33898V2.88674ZM7.49998 0.85C6.30045 0.85 5.32213 1.80753 5.18986 3.02048L5.48809 3.053C5.60548 1.97659 6.4688 1.15 7.49998 1.15V0.85ZM9.81027 3.02048C9.678 1.80755 8.69954 0.85 7.49998 0.85V1.15C8.53121 1.15 9.39466 1.97663 9.51204 3.053L9.81027 3.02048ZM7.49998 2.0711C8.05472 2.0711 8.52811 2.49287 8.63352 3.06397L8.92853 3.00952C8.79961 2.31097 8.21399 1.7711 7.49998 1.7711V2.0711ZM6.36668 3.06396C6.47206 2.49283 6.94548 2.0711 7.49998 2.0711V1.7711C6.7862 1.7711 6.20055 2.31095 6.07166 3.00953L6.36668 3.06396ZM8.78103 2.88674H6.21917V3.18674H8.78103V2.88674ZM11.0028 17.2289C11.6258 17.2289 12.1183 16.6956 12.1183 16.0578H11.8183C11.8183 16.546 11.4445 16.9289 11.0028 16.9289V17.2289ZM3.99712 17.2289H11.0028V16.9289H3.99712V17.2289ZM2.88165 16.0578C2.88165 16.6956 3.37419 17.2289 3.99712 17.2289V16.9289C3.5555 16.9289 3.18165 16.546 3.18165 16.0578H2.88165ZM2.88165 7.02086V16.0578H3.18165V7.02086H2.88165ZM11.9683 6.87086H3.03165V7.17086H11.9683V6.87086ZM12.1183 16.0578V7.02086H11.8183V16.0578H12.1183ZM12.979 5.07863C12.979 5.56685 12.6051 5.9498 12.1635 5.9498V6.2498C12.7864 6.2498 13.279 5.71648 13.279 5.07863H12.979ZM13.129 4.92863H13.129V5.22863H13.129V4.92863ZM12.979 4.97897V5.07863H13.279V4.97897H12.979ZM12.1635 4.1078C12.6051 4.1078 12.979 4.49075 12.979 4.97897H13.279C13.279 4.34112 12.7865 3.8078 12.1635 3.8078V4.1078ZM2.83647 4.1078H12.1635V3.8078H2.83647V4.1078ZM2.021 4.97897C2.021 4.49075 2.39486 4.1078 2.83647 4.1078V3.8078C2.21355 3.8078 1.721 4.34112 1.721 4.97897H2.021ZM2.021 5.07863V4.97897H1.721V5.07863H2.021ZM2.83647 5.9498C2.39486 5.9498 2.021 5.56685 2.021 5.07863H1.721C1.721 5.71648 2.21355 6.2498 2.83647 6.2498V5.9498ZM12.1635 5.9498H2.83647V6.2498H12.1635V5.9498Z" fill="#001A72"/>
<path d="M5.5 16C5.77615 16 6 15.7973 6 15.5475V10.4525C6 10.2027 5.77611 10 5.5 10C5.22389 10 5 10.2027 5 10.4525V15.5475C4.99996 15.7974 5.22385 16 5.5 16Z" fill="#001A72"/>
<path d="M7.49998 16C7.77612 16 8 15.7973 8 15.5475V10.4525C8 10.2027 7.77604 10 7.49998 10C7.22388 10 7 10.2027 7 10.4525V15.5475C7 15.7974 7.22384 16 7.49998 16Z" fill="#001A72"/>
<path d="M9.50004 16C9.77615 16 10 15.7973 10 15.5475V10.4525C10 10.2027 9.77611 10 9.50004 10C9.22385 10 9 10.2027 9 10.4525V15.5475C8.99996 15.7974 9.22393 16 9.50004 16Z" fill="#001A72"/>
</svg>
