<svg width="40" height="40" viewBox="0 0 40 40" fill="none" xmlns="http://www.w3.org/2000/svg">
<path d="M20 40C8.97167 40 0 31.0283 0 20C0 8.97167 8.97167 0 20 0C31.0283 0 40 8.97167 40 20C40 31.0283 31.0283 40 20 40ZM20 1.66667C9.89167 1.66667 1.66667 9.89167 1.66667 20C1.66667 30.1083 9.89167 38.3333 20 38.3333C30.1083 38.3333 38.3333 30.1083 38.3333 20C38.3333 9.89167 30.1083 1.66667 20 1.66667Z" fill="#001A72"/>
<path d="M29.1667 30.0006H10.8333C10.3733 30.0006 10 29.6273 10 29.1673C10 28.7073 10.3733 28.334 10.8333 28.334H29.1667C29.6267 28.334 30 28.7073 30 29.1673C30 29.6273 29.6267 30.0006 29.1667 30.0006Z" fill="#001A72"/>
<path d="M20.0003 26.6667C19.5403 26.6667 19.167 26.2933 19.167 25.8333V9.58333C19.167 9.12333 19.5403 8.75 20.0003 8.75C20.4603 8.75 20.8337 9.12333 20.8337 9.58333V25.8333C20.8337 26.2933 20.4603 26.6667 20.0003 26.6667Z" fill="#001A72"/>
<path d="M25.8337 15.8327C25.6204 15.8327 25.407 15.7511 25.2437 15.5894L20.0004 10.3444L14.757 15.5894C14.432 15.9144 13.9037 15.9144 13.5787 15.5894C13.2537 15.2644 13.2537 14.7361 13.5787 14.4111L19.412 8.57773C19.737 8.25273 20.2654 8.25273 20.5904 8.57773L26.4237 14.4111C26.7487 14.7361 26.7487 15.2644 26.4237 15.5894C26.2604 15.7511 26.047 15.8327 25.8337 15.8327Z" fill="#001A72"/>
</svg>
