<svg width="55" height="59" viewBox="0 0 55 59" fill="none" xmlns="http://www.w3.org/2000/svg">
<path fill-rule="evenodd" clip-rule="evenodd" d="M27.5 55C41.5833 55 53 43.8071 53 30C53 16.1929 41.5833 5 27.5 5C13.4167 5 2 16.1929 2 30C2 43.8071 13.4167 55 27.5 55Z" fill="white"/>
<path d="M53.0439 39.4966C54.0042 36.76 54.5 33.8726 54.5 30.9212C54.5 16.3209 42.3894 4.5 27.4682 4.5C23.2001 4.5 19.0705 5.46867 15.3383 7.30325C14.5948 7.6687 14.2884 8.56765 14.6538 9.31112C15.0193 10.0546 15.9182 10.361 16.6617 9.99558C19.9839 8.36252 23.661 7.5 27.4682 7.5C40.7486 7.5 51.5 17.9943 51.5 30.9212C51.5 33.533 51.0618 36.0847 50.2131 38.5034C49.9388 39.2851 50.3502 40.1411 51.1319 40.4154C51.9136 40.6897 52.7696 40.2783 53.0439 39.4966Z" fill="#001A72"/>
<path d="M0.5 30C0.5 31.0681 0.564357 32.1288 0.69201 33.1781C2.30401 46.4295 13.7776 56.5 27.456 56.5C32.1717 56.5 36.7147 55.3068 40.7301 53.0693C41.4538 52.666 41.7136 51.7525 41.3103 51.0288C40.9071 50.3052 39.9935 50.0454 39.2699 50.4487C35.6985 52.4387 31.6578 53.5 27.456 53.5C15.2885 53.5 5.0982 44.5558 3.67006 32.8159C3.55702 31.8866 3.5 30.9469 3.5 30C3.5 29.1716 2.82843 28.5 2 28.5C1.17157 28.5 0.5 29.1716 0.5 30Z" fill="#001A72"/>
<path d="M19.7604 2.49932C20.0362 1.71814 19.6265 0.861316 18.8453 0.585545C18.0641 0.309775 17.2073 0.71949 16.9315 1.50067L14.9071 7.23524C14.4587 8.50546 15.0973 9.90259 16.3513 10.3947L21.452 12.3963C22.2232 12.699 23.0937 12.3191 23.3963 11.548C23.6989 10.7768 23.3191 9.90629 22.5479 9.60366L17.8968 7.77844L19.7604 2.49932Z" fill="#001A72"/>
<path d="M40.8045 56.366C40.7205 57.1902 41.3205 57.9264 42.1446 58.0104C42.9688 58.0944 43.705 57.4945 43.7891 56.6703L44.3985 50.6928C44.5385 49.3192 43.5385 48.0921 42.165 47.9521L36.3796 47.4442C35.5543 47.3718 34.8266 47.9821 34.7542 48.8073C34.6818 49.6326 35.2921 50.3603 36.1173 50.4327L41.3625 50.8929L40.8045 56.366Z" fill="#001A72"/>
</svg>